<?xml version="1.0" encoding="UTF-8"?>
<!DOCTYPE svg PUBLIC "-//W3C//DTD SVG 1.1//EN" "http://www.w3.org/Graphics/SVG/1.1/DTD/svg11.dtd">
<!-- Creator: CorelDRAW X7 -->
<svg xmlns="http://www.w3.org/2000/svg" xml:space="preserve" width="210mm" height="297mm" version="1.1" style="shape-rendering:geometricPrecision; text-rendering:geometricPrecision; image-rendering:optimizeQuality; fill-rule:evenodd; clip-rule:evenodd"
viewBox="0 0 21000 29700"
 xmlns:xlink="http://www.w3.org/1999/xlink">
 <defs>
  <style type="text/css">
   <![CDATA[
    .fil0 {fill:#1D9BF0}
    .fil1 {fill:#373435;fill-rule:nonzero}
   ]]>
  </style>
 </defs>
 <g id="Layer_x0020_1">
  <metadata id="CorelCorpID_0Corel-Layer"/>
  <path class="fil0" d="M8797 5601l-2 1158 845 485c169,99 363,204 527,304 56,34 60,14 113,-17 37,-21 194,-103 208,-125 -14,-23 -128,-80 -168,-104 -63,-36 -114,-66 -176,-101 -120,-70 -230,-129 -351,-203l-528 -304c-29,-16 -154,-84 -173,-104 -8,-12 -5,-48 -5,-65l0 -801c0,-89 6,-199 -1,-286 -23,-1 -121,63 -144,77 -41,24 -114,59 -145,86zm571 154c10,26 538,321 570,339l2 665c43,25 264,154 291,156l-1 -944c0,-52 -3,-44 -41,-66 -191,-106 -430,-257 -613,-354 -240,-127 -207,-165 -208,-12 0,72 0,144 0,216zm-1143 172l-2 1165c77,35 575,326 642,366 115,70 214,122 321,184 41,24 33,31 80,2 26,-16 54,-31 82,-47 34,-21 143,-75 159,-99 -41,-41 -884,-500 -994,-580l-1 -1147c-24,3 -246,126 -287,156z"/>
  <polygon class="fil0" points="18070,7396 18070,7231 19028,7231 19028,7396 "/>
  <path class="fil1" d="M17593 6571l340 479 0 13 -216 0 -241 -368 -260 368 -196 0 0 -13 342 -477 -326 -451 0 -13 213 0 233 340 235 -340 194 0 0 13 -318 449zm-1043 -342c-76,0 -135,23 -178,68 -42,45 -70,106 -83,185l474 0 0 -9c0,-81 -18,-142 -55,-183 -37,-41 -90,-61 -158,-61zm392 390l-664 0c1,109 28,188 79,237 52,50 118,74 199,74 59,0 109,-7 152,-21 43,-15 90,-37 142,-68l72 133c-119,77 -244,115 -374,115 -140,0 -251,-39 -335,-116 -83,-78 -125,-201 -125,-369 0,-96 18,-183 52,-262 35,-78 87,-141 156,-188 69,-47 154,-71 254,-71 84,0 156,17 216,51 59,34 104,81 135,141 30,59 45,128 45,204l-4 140zm-1109 -967l0 1411 -222 0 -621 -915 -28 -41c-3,-6 -12,-20 -27,-41 -15,-22 -28,-42 -39,-61 -11,-19 -21,-38 -30,-57l0 1115 -191 0 0 -1411 211 0 638 934c6,9 18,27 37,54 19,26 35,51 48,74 13,22 24,44 33,64l0 -1126 191 0zm-1357 457l0 13 -363 1009c-32,88 -66,159 -103,212 -36,53 -77,92 -123,115 -45,24 -99,36 -162,36 -64,0 -127,-10 -189,-32l50 -144c42,13 83,20 124,20 33,0 62,-5 85,-16 23,-10 46,-29 68,-58 23,-29 45,-73 67,-131l26 -70 -50 0 -366 -941 0 -13 198 0 224 610 24 65 35 103 55 -168 209 -610 191 0zm-1121 -26c24,0 47,2 67,4 21,3 42,8 66,14l-35 193c-50,-17 -95,-26 -135,-26 -47,0 -90,10 -129,31 -39,20 -77,59 -113,115l0 649 -187 0 0 -956 187 -20 0 138c36,-47 78,-82 126,-106 48,-24 99,-36 153,-36zm-1091 146c-76,0 -135,23 -178,68 -43,45 -71,106 -84,185l475 0 0 -9c0,-81 -18,-142 -55,-183 -37,-41 -90,-61 -158,-61zm392 390l-665 0c2,109 28,188 80,237 51,50 118,74 199,74 58,0 109,-7 152,-21 42,-15 90,-37 142,-68l72 133c-119,77 -244,115 -375,115 -139,0 -250,-39 -334,-116 -83,-78 -125,-201 -125,-369 0,-96 17,-183 52,-262 35,-78 87,-141 156,-188 69,-47 153,-71 254,-71 84,0 156,17 215,51 60,34 105,81 135,141 31,59 46,128 46,204l-4 140zm-1083 -532l0 976 -167 0 -11 -72c-112,66 -225,98 -340,98 -89,0 -161,-25 -217,-75 -56,-50 -84,-126 -84,-227l0 -678 188 -22 0 645c0,48 5,86 17,114 12,29 31,49 57,61 26,13 62,19 109,19 69,0 156,-27 261,-81l0 -736 187 -22z"/>
 </g>
</svg>
